<svg width="512" height="513" viewBox="0 0 512 513" fill="none" xmlns="http://www.w3.org/2000/svg">
<g clip-path="url(#clip0_44_8)">
<rect width="511.999" height="512" transform="translate(0.00195312 0.831497)" fill="black"/>
<rect x="0.00195312" y="0.831497" width="512" height="512" fill="#D9D9D9"/>
<path d="M6.00195 512.832C6.00195 512.832 6.00244 90.1897 6.00195 64.4357C6.00146 38.6816 17.4674 28.0248 47.6618 28.0248C77.8562 28.0248 85.8488 0.831497 128.002 0.831497L384.001 0.83168C426.154 0.83168 434.147 28.025 464.341 28.025C494.535 28.025 506.001 38.6818 506.001 64.4358C506 90.1898 506.001 512.832 506.001 512.832H6.00195Z" fill="#7C28BB"/>
<path d="M68.8665 489.04C77.4416 488.934 85.748 495.576 85.748 504.152V512.835H6V448C6 448 8.96466 474.041 36.1445 483.646C48.6248 488.057 60.1023 489.149 68.8665 489.04Z" fill="#D9D9D9"/>
<path d="M443.134 489.04C434.559 488.934 426.253 495.576 426.253 504.152V512.835H506.001V448C506.001 448 503.036 474.041 475.856 483.646C463.376 488.057 451.899 489.149 443.134 489.04Z" fill="#D9D9D9"/>
<path d="M431.843 310.074C406.728 333.257 330.054 342.975 256.377 342.975C182.701 342.975 121.849 337.034 86.1863 315.351C67.4109 303.936 68.4704 263.497 71.5457 211.084L71.592 210.296C74.3503 163.282 77.8004 104.477 86.186 91.729C94.7438 78.7196 115.457 77.9465 144.818 76.0251C176.555 73.9482 218.078 71.2798 256.377 71.2798C292.574 71.2798 332.086 73.6055 363.052 76.025C395.162 78.534 418.194 81.3189 425.246 91.729C432.7 102.732 438.622 158.395 441.077 211.084C443.185 256.32 443.444 299.365 431.843 310.074Z" fill="#444564"/>
<rect x="136.002" y="110.252" width="240" height="160" rx="8" fill="#D9D9D9"/>
<path d="M195.15 299.716H204.125C203.975 306.166 200.375 309.916 194.675 309.916C188.975 309.916 185.45 306.541 185.45 301.416C185.45 298.566 186.525 295.916 188.425 293.991C190.225 292.191 192.775 291.166 195.725 291.166C199.125 291.166 201.65 292.491 203.525 295.341L199.725 297.941C198.825 296.341 197.525 295.541 195.725 295.541C192.725 295.541 190.55 297.966 190.55 301.266C190.55 304.041 192.275 305.791 194.775 305.791C195.725 305.791 196.575 305.566 197.275 305.141C197.925 304.741 198.375 304.141 198.65 303.366H194.575L195.15 299.716ZM211.611 298.491H212.011C213.986 298.491 215.036 298.141 215.036 296.491C215.036 295.416 214.311 294.991 212.811 294.991H212.136L211.611 298.491ZM210.436 305.941H211.011C213.386 305.941 214.611 305.666 214.611 303.566C214.611 302.191 213.761 301.766 211.936 301.766H211.086L210.436 305.941ZM215.786 300.141C218.061 300.566 219.286 301.991 219.286 304.191C219.286 306.041 218.411 307.666 217.011 308.541C215.661 309.391 213.761 309.441 211.136 309.441H205.236L208.086 291.566H212.136C214.336 291.566 215.961 291.591 217.136 292.066C218.636 292.666 219.561 294.116 219.561 295.816C219.561 298.166 218.136 299.816 215.786 300.141ZM227.661 302.091H231.436L230.611 297.916C230.486 297.241 230.386 296.566 230.361 295.891C229.961 297.016 229.686 297.716 229.561 297.991L227.661 302.091ZM218.961 309.441L227.911 291.566H233.886L237.686 309.441H232.836L232.111 306.066H225.861L224.161 309.441H218.961Z" fill="white"/>
<path d="M255.118 306.441H244.627V304.27H254.234V302.372H246.616C245.299 302.302 244.64 301.86 244.64 301.046V297.276C244.64 296.513 245.299 296.101 246.616 296.041H256.821V298.264H247.175V300.175H255.105C256.163 300.175 256.73 300.539 256.808 301.267V305.167C256.73 306.016 256.167 306.441 255.118 306.441ZM264.239 298.16H259.481V296.041H272.169V298.16H267.268V306.441H264.239V298.16ZM274.423 296.041H277.023V304.205H283.64V296.041H286.292V304.803C286.292 305.817 285.746 306.363 284.654 306.441H275.97C275.017 306.441 274.501 305.903 274.423 304.829V296.041ZM298.117 306.441H289.277V296.041H298.117C300.032 296.041 301.371 296.903 302.134 298.628C302.455 299.338 302.645 300.196 302.706 301.202C302.645 302.224 302.455 303.095 302.134 303.815C301.371 305.565 300.032 306.441 298.117 306.441ZM300.236 301.228C300.193 300.638 300.08 300.131 299.898 299.707C299.447 298.693 298.659 298.186 297.532 298.186H291.851V304.309H297.519C298.646 304.309 299.439 303.797 299.898 302.775C300.08 302.341 300.193 301.826 300.236 301.228ZM305.578 296.041H308.607V306.441H305.578V296.041ZM323.802 304.972C323.802 305.882 323.173 306.371 321.917 306.441C320.807 306.449 317.878 306.449 313.129 306.441C312.193 306.441 311.69 305.938 311.621 304.933C311.638 303.667 311.638 301.115 311.621 297.276C311.621 296.513 312.279 296.101 313.597 296.041H321.917C323.078 296.041 323.702 296.435 323.789 297.224L323.802 304.972ZM321.228 304.257V298.264H314.156V304.257H321.228Z" fill="white"/>
<ellipse cx="460.195" cy="104.32" rx="5.93225" ry="5.93221" fill="#FF0000"/>
<ellipse cx="156.592" cy="442.642" rx="5.93225" ry="5.93221" fill="white"/>
<ellipse cx="156.592" cy="467.972" rx="5.93225" ry="5.93221" fill="white"/>
<path d="M451.321 215.623C450.808 214.256 451.5 212.732 452.867 212.218L493.177 197.086C494.544 196.573 496.068 197.265 496.581 198.632C497.094 199.999 496.402 201.523 495.035 202.036L454.726 217.169C453.359 217.682 451.834 216.99 451.321 215.623Z" fill="#444564"/>
<path d="M451.321 226.593C450.808 225.226 451.5 223.702 452.867 223.189L493.177 208.057C494.544 207.543 496.068 208.236 496.581 209.603C497.094 210.97 496.402 212.494 495.035 213.007L454.726 228.139C453.359 228.652 451.834 227.96 451.321 226.593Z" fill="#444564"/>
<path d="M451.321 237.564C450.808 236.197 451.5 234.672 452.867 234.159L493.177 219.027C494.544 218.514 496.068 219.206 496.581 220.573C497.094 221.94 496.402 223.464 495.035 223.977L454.726 239.109C453.359 239.623 451.834 238.93 451.321 237.564Z" fill="#444564"/>
<path d="M451.321 248.534C450.808 247.167 451.5 245.643 452.867 245.13L493.177 229.997C494.544 229.484 496.068 230.176 496.581 231.543C497.094 232.91 496.402 234.434 495.035 234.948L454.726 250.08C453.359 250.593 451.834 249.901 451.321 248.534Z" fill="#444564"/>
<path d="M451.321 259.504C450.808 258.137 451.5 256.613 452.867 256.1L493.177 240.968C494.544 240.455 496.068 241.147 496.581 242.514C497.094 243.881 496.402 245.405 495.035 245.918L454.726 261.05C453.359 261.563 451.834 260.871 451.321 259.504Z" fill="#444564"/>
<path d="M95.6415 348.99C95.6415 346.229 97.88 343.99 100.641 343.99H112.726C115.488 343.99 117.726 346.229 117.726 348.99V412.766C117.726 415.527 115.488 417.766 112.726 417.766H100.641C97.88 417.766 95.6415 415.527 95.6415 412.766V348.99Z" fill="white"/>
<path d="M138.572 369.835C141.333 369.835 143.572 372.074 143.572 374.835V386.92C143.572 389.682 141.333 391.92 138.572 391.92L74.7964 391.92C72.035 391.92 69.7964 389.682 69.7964 386.92L69.7964 374.835C69.7964 372.074 72.035 369.835 74.7964 369.835L138.572 369.835Z" fill="white"/>
<circle cx="357.058" cy="417.766" r="18.9438" fill="white"/>
<circle cx="416.975" cy="395.488" r="18.9438" fill="white"/>
</g>
<defs>
<clipPath id="clip0_44_8">
<rect width="511.999" height="512" fill="white" transform="translate(0.00195312 0.831497)"/>
</clipPath>
</defs>
</svg>
